<?xml version="1.0" encoding="iso-8859-1"?>
<!-- Generator: Adobe Illustrator 19.0.0, SVG Export Plug-In . SVG Version: 6.00 Build 0)  -->
<svg version="1.1" id="Layer_1" xmlns="http://www.w3.org/2000/svg" xmlns:xlink="http://www.w3.org/1999/xlink" x="0px" y="0px"
	 viewBox="0 0 512 512" style="enable-background:new 0 0 512 512;" xml:space="preserve">
<path style="fill:#CAE9F7;" d="M256,512c-68.381,0-132.667-26.628-181.019-74.981C26.628,388.668,0,324.382,0,256.002
	c0-68.381,26.628-132.669,74.982-181.021C123.333,26.629,187.619,0,256,0c51.299,0,100.795,15.121,143.138,43.726
	c3.7,2.5,4.673,7.525,2.174,11.225c-2.5,3.699-7.525,4.671-11.224,2.173C350.427,30.331,304.06,16.168,256,16.168
	c-132.244,0-239.832,107.589-239.832,239.834c0,132.243,107.588,239.829,239.832,239.829s239.832-107.587,239.832-239.829
	c0-51.129-15.866-99.924-45.882-141.107c-2.63-3.608-1.837-8.665,1.771-11.295c3.609-2.63,8.665-1.838,11.295,1.772
	C495.062,149.34,512,201.427,512,256.002c0,68.379-26.628,132.666-74.982,181.017C388.667,485.372,324.379,512,256,512z"/>
<circle style="fill:#90C8EC;" cx="256" cy="256" r="135.836"/>
<path style="fill:#578CAD;" d="M338.185,271.333c0.091-0.488,0.157-0.985,0.239-1.477c0.093-0.555,0.189-1.109,0.269-1.669
	c0.117-0.799,0.212-1.604,0.307-2.409c0.061-0.534,0.132-1.065,0.184-1.602c0.086-0.894,0.147-1.795,0.205-2.697
	c0.029-0.456,0.071-0.909,0.094-1.367c0.067-1.364,0.105-2.734,0.105-4.112c0-46.165-37.423-83.589-83.589-83.589
	s-83.589,37.423-83.589,83.589c0,1.379,0.038,2.75,0.105,4.112c0.022,0.458,0.065,0.911,0.094,1.367
	c0.059,0.902,0.119,1.803,0.205,2.697c0.053,0.537,0.123,1.068,0.184,1.602c0.095,0.805,0.19,1.61,0.307,2.409
	c0.081,0.559,0.177,1.113,0.269,1.669c0.082,0.492,0.149,0.988,0.239,1.477l0.047,0.126c1.8,9.622,5.243,18.659,10.036,26.816
	l0.041,0.11c0.121,0.204,0.248,0.403,0.371,0.607c0.157,0.262,0.319,0.523,0.479,0.784c0.556,0.902,1.126,1.796,1.715,2.674
	c0.081,0.121,0.157,0.246,0.24,0.365c0.658,0.97,1.34,1.923,2.037,2.864c0.181,0.245,0.364,0.487,0.549,0.731
	c0.643,0.85,1.3,1.689,1.976,2.515c0.084,0.103,0.166,0.21,0.251,0.314c0.746,0.902,1.517,1.785,2.3,2.655
	c0.203,0.224,0.406,0.448,0.611,0.67c0.73,0.793,1.47,1.574,2.229,2.338c0.085,0.085,0.166,0.174,0.251,0.259
	c0.831,0.828,1.684,1.635,2.547,2.428c0.221,0.203,0.445,0.404,0.669,0.606c0.812,0.73,1.635,1.447,2.475,2.144
	c0.081,0.068,0.158,0.137,0.241,0.204c0.908,0.748,1.837,1.472,2.777,2.183c0.239,0.18,0.48,0.359,0.721,0.537
	c0.889,0.658,1.788,1.301,2.706,1.924c0.077,0.052,0.151,0.107,0.226,0.157c0.98,0.661,1.979,1.295,2.987,1.914
	c0.255,0.157,0.513,0.313,0.771,0.467c0.965,0.579,1.937,1.143,2.925,1.683c0.069,0.038,0.135,0.078,0.204,0.114
	c1.046,0.567,2.108,1.105,3.18,1.629c0.271,0.133,0.542,0.262,0.814,0.391c1.036,0.493,2.08,0.969,3.138,1.419
	c0.056,0.024,0.11,0.05,0.167,0.073c1.105,0.468,2.227,0.903,3.355,1.324c0.285,0.106,0.567,0.208,0.852,0.311
	c1.099,0.396,2.208,0.776,3.33,1.126c0.045,0.014,0.091,0.03,0.136,0.044c1.159,0.36,2.331,0.687,3.511,0.997
	c0.295,0.078,0.592,0.153,0.888,0.227c1.161,0.292,2.329,0.567,3.51,0.81c0.031,0.006,0.063,0.014,0.094,0.02
	c1.205,0.246,2.424,0.457,3.648,0.651c0.306,0.049,0.612,0.095,0.921,0.14c1.219,0.179,2.445,0.342,3.68,0.467
	c0.015,0.002,0.028,0.004,0.043,0.005c1.247,0.126,2.504,0.216,3.767,0.287c0.314,0.018,0.629,0.033,0.945,0.047
	c1.27,0.057,2.543,0.097,3.827,0.097c1.283,0,2.557-0.04,3.827-0.097c0.316-0.014,0.632-0.03,0.945-0.047
	c1.263-0.07,2.52-0.16,3.767-0.287c0.015-0.001,0.028-0.003,0.043-0.005c1.236-0.126,2.461-0.288,3.68-0.467
	c0.307-0.045,0.613-0.092,0.921-0.14c1.223-0.194,2.443-0.405,3.648-0.651c0.031-0.006,0.063-0.014,0.094-0.02
	c1.18-0.243,2.349-0.518,3.51-0.81c0.296-0.074,0.593-0.151,0.888-0.227c1.179-0.31,2.352-0.637,3.511-0.997
	c0.045-0.014,0.091-0.03,0.136-0.044c1.122-0.35,2.229-0.731,3.33-1.126c0.285-0.102,0.567-0.206,0.852-0.311
	c1.129-0.42,2.251-0.856,3.355-1.324c0.057-0.024,0.112-0.05,0.167-0.073c1.057-0.449,2.102-0.926,3.138-1.419
	c0.272-0.129,0.543-0.259,0.814-0.391c1.071-0.523,2.134-1.062,3.18-1.629c0.069-0.038,0.135-0.077,0.204-0.114
	c0.988-0.539,1.961-1.104,2.925-1.683c0.258-0.154,0.514-0.309,0.771-0.467c1.009-0.62,2.007-1.254,2.988-1.914
	c0.075-0.052,0.15-0.107,0.226-0.157c0.917-0.623,1.816-1.267,2.706-1.924c0.241-0.178,0.482-0.357,0.721-0.537
	c0.94-0.71,1.869-1.435,2.777-2.183c0.082-0.067,0.16-0.137,0.241-0.204c0.84-0.697,1.663-1.414,2.475-2.144
	c0.224-0.201,0.448-0.403,0.669-0.606c0.864-0.793,1.717-1.6,2.547-2.428c0.085-0.085,0.166-0.174,0.251-0.259
	c0.759-0.764,1.5-1.545,2.229-2.338c0.205-0.223,0.41-0.446,0.611-0.67c0.784-0.871,1.553-1.753,2.3-2.655
	c0.085-0.103,0.167-0.209,0.251-0.314c0.676-0.825,1.332-1.664,1.976-2.515c0.184-0.244,0.368-0.485,0.549-0.731
	c0.696-0.941,1.379-1.893,2.037-2.864c0.082-0.121,0.16-0.245,0.24-0.365c0.589-0.878,1.159-1.772,1.715-2.674
	c0.16-0.261,0.321-0.522,0.479-0.784c0.122-0.204,0.249-0.402,0.371-0.607l0.041-0.11c4.792-8.156,8.236-17.193,10.035-26.816
	L338.185,271.333z"/>
<path style="fill:#90C8EC;" d="M428.832,34.282c-24.861,0-45.085,20.226-45.085,45.085c0,24.861,20.226,45.086,45.085,45.086
	c24.861,0,45.086-20.226,45.086-45.086C473.918,54.508,453.692,34.282,428.832,34.282z"/>
<g>
	<path style="opacity:0.1;fill:#231F20;enable-background:new    ;" d="M137.415,256c0-72.12,56.209-131.101,127.208-135.551
		c-2.852-0.179-5.726-0.28-8.623-0.28c-75.017,0-135.831,60.814-135.831,135.831S180.983,391.832,256,391.832
		c2.897,0,5.771-0.101,8.623-0.28C193.625,387.102,137.415,328.12,137.415,256z"/>
	<path style="opacity:0.1;fill:#231F20;enable-background:new    ;" d="M260.984,338.685c-0.307-0.045-0.613-0.092-0.921-0.14
		c-1.223-0.194-2.443-0.405-3.648-0.651c-0.031-0.007-0.063-0.014-0.094-0.021c-1.18-0.243-2.349-0.518-3.51-0.81
		c-0.296-0.074-0.593-0.151-0.888-0.227c-1.179-0.31-2.352-0.637-3.511-0.997c-0.045-0.014-0.091-0.03-0.136-0.044
		c-1.122-0.35-2.229-0.731-3.33-1.126c-0.285-0.102-0.567-0.206-0.852-0.312c-1.129-0.42-2.251-0.856-3.355-1.324
		c-0.057-0.024-0.112-0.05-0.167-0.073c-1.057-0.449-2.102-0.926-3.138-1.419c-0.272-0.129-0.543-0.259-0.814-0.391
		c-1.071-0.523-2.135-1.062-3.18-1.629c-0.069-0.038-0.135-0.077-0.204-0.114c-0.988-0.539-1.961-1.104-2.925-1.683
		c-0.258-0.154-0.515-0.309-0.771-0.467c-1.009-0.62-2.007-1.254-2.987-1.914c-0.075-0.052-0.15-0.107-0.226-0.157
		c-0.917-0.623-1.816-1.267-2.706-1.924c-0.241-0.178-0.482-0.357-0.721-0.537c-0.94-0.71-1.869-1.435-2.777-2.183
		c-0.082-0.067-0.16-0.137-0.241-0.204c-0.84-0.697-1.663-1.414-2.475-2.144c-0.224-0.201-0.448-0.403-0.669-0.606
		c-0.864-0.793-1.717-1.6-2.547-2.428c-0.085-0.085-0.166-0.174-0.251-0.259c-0.759-0.764-1.5-1.545-2.229-2.338
		c-0.205-0.223-0.41-0.446-0.611-0.67c-0.783-0.871-1.553-1.753-2.3-2.655c-0.085-0.103-0.167-0.209-0.251-0.314
		c-0.676-0.825-1.332-1.664-1.976-2.515c-0.184-0.244-0.368-0.485-0.549-0.731c-0.696-0.941-1.379-1.893-2.037-2.864
		c-0.082-0.121-0.16-0.245-0.24-0.365c-0.589-0.878-1.159-1.772-1.715-2.674c-0.16-0.261-0.321-0.522-0.479-0.784
		c-0.122-0.204-0.249-0.402-0.371-0.607l-0.041-0.11c-4.792-8.156-8.236-17.193-10.036-26.816l-0.047-0.126
		c-0.091-0.488-0.156-0.985-0.239-1.477c-0.093-0.555-0.189-1.109-0.269-1.669c-0.117-0.799-0.212-1.604-0.307-2.409
		c-0.061-0.534-0.132-1.065-0.184-1.602c-0.086-0.894-0.147-1.795-0.205-2.697c-0.029-0.456-0.071-0.909-0.094-1.367
		c-0.067-1.364-0.105-2.734-0.105-4.112c0-43.253,32.851-78.831,74.965-83.148c-2.835-0.291-5.712-0.441-8.623-0.441
		c-46.165,0-83.589,37.423-83.589,83.589c0,1.379,0.038,2.75,0.105,4.112c0.022,0.458,0.065,0.911,0.094,1.367
		c0.059,0.902,0.119,1.803,0.205,2.697c0.053,0.537,0.123,1.068,0.184,1.602c0.095,0.805,0.19,1.61,0.307,2.409
		c0.081,0.559,0.177,1.113,0.269,1.669c0.082,0.492,0.149,0.988,0.239,1.477l0.047,0.126c1.8,9.622,5.243,18.659,10.036,26.816
		l0.041,0.11c0.121,0.204,0.248,0.403,0.371,0.607c0.157,0.262,0.319,0.523,0.479,0.784c0.556,0.902,1.126,1.796,1.715,2.674
		c0.081,0.121,0.157,0.246,0.24,0.365c0.658,0.97,1.34,1.923,2.037,2.864c0.181,0.245,0.364,0.487,0.549,0.731
		c0.644,0.85,1.3,1.689,1.976,2.515c0.084,0.103,0.166,0.21,0.251,0.314c0.746,0.902,1.517,1.785,2.3,2.655
		c0.203,0.224,0.406,0.448,0.611,0.67c0.73,0.793,1.47,1.574,2.229,2.338c0.085,0.085,0.166,0.174,0.251,0.259
		c0.831,0.828,1.684,1.635,2.547,2.428c0.221,0.203,0.445,0.404,0.669,0.606c0.812,0.73,1.635,1.447,2.475,2.144
		c0.081,0.068,0.158,0.137,0.241,0.204c0.908,0.748,1.837,1.472,2.777,2.183c0.239,0.18,0.48,0.359,0.721,0.537
		c0.889,0.658,1.788,1.301,2.706,1.924c0.077,0.052,0.151,0.107,0.226,0.157c0.98,0.661,1.979,1.295,2.987,1.914
		c0.255,0.157,0.513,0.313,0.771,0.467c0.965,0.579,1.937,1.143,2.925,1.683c0.069,0.038,0.135,0.078,0.204,0.114
		c1.046,0.567,2.108,1.105,3.18,1.629c0.271,0.133,0.542,0.262,0.814,0.391c1.036,0.493,2.08,0.969,3.138,1.419
		c0.056,0.024,0.11,0.05,0.167,0.073c1.105,0.468,2.227,0.903,3.355,1.324c0.285,0.106,0.567,0.208,0.852,0.312
		c1.099,0.396,2.208,0.776,3.33,1.126c0.045,0.014,0.091,0.03,0.136,0.044c1.159,0.36,2.331,0.687,3.511,0.997
		c0.295,0.078,0.592,0.153,0.888,0.227c1.161,0.292,2.329,0.567,3.51,0.81c0.031,0.007,0.063,0.014,0.094,0.021
		c1.205,0.246,2.424,0.457,3.648,0.651c0.306,0.049,0.612,0.095,0.921,0.14c1.219,0.179,2.445,0.342,3.68,0.467
		c0.015,0.002,0.028,0.004,0.043,0.005c1.247,0.126,2.504,0.216,3.767,0.287c0.314,0.018,0.629,0.033,0.945,0.047
		c1.27,0.057,2.543,0.097,3.827,0.097c1.283,0,2.557-0.04,3.827-0.097c0.316-0.014,0.632-0.03,0.945-0.047
		c1.263-0.07,2.52-0.16,3.767-0.287c0.015-0.001,0.028-0.003,0.043-0.005c0.015-0.001,0.027-0.003,0.041-0.005
		C263.401,339.023,262.189,338.862,260.984,338.685z"/>
	<path style="opacity:0.1;fill:#231F20;enable-background:new    ;" d="M400.993,79.368c0-21.911,15.714-40.212,36.462-44.249
		c-2.793-0.543-5.674-0.836-8.623-0.836c-24.861,0-45.085,20.226-45.085,45.085c0,24.861,20.226,45.086,45.085,45.086
		c2.949,0,5.83-0.293,8.623-0.836C416.707,119.581,400.993,101.279,400.993,79.368z"/>
</g>
<g>
</g>
<g>
</g>
<g>
</g>
<g>
</g>
<g>
</g>
<g>
</g>
<g>
</g>
<g>
</g>
<g>
</g>
<g>
</g>
<g>
</g>
<g>
</g>
<g>
</g>
<g>
</g>
<g>
</g>
</svg>
