<?xml version="1.0" encoding="iso-8859-1"?>
<!-- Generator: Adobe Illustrator 19.0.0, SVG Export Plug-In . SVG Version: 6.00 Build 0)  -->
<svg version="1.1" id="Layer_1" xmlns="http://www.w3.org/2000/svg" xmlns:xlink="http://www.w3.org/1999/xlink" x="0px" y="0px"
	 viewBox="0 0 512.003 512.003" style="enable-background:new 0 0 512.003 512.003;" xml:space="preserve">
<path style="fill:#90C8EC;" d="M256.002,33.993c-122.416,0-222.008,99.593-222.008,222.008s99.591,222.008,222.008,222.008
	c122.415,0,222.008-99.591,222.008-222.008S378.417,33.993,256.002,33.993z"/>
<path style="opacity:0.1;fill:#231F20;enable-background:new    ;" d="M60.647,256.001c0-117.94,92.447-214.68,208.682-221.596
	c-4.412-0.262-8.85-0.411-13.326-0.411c-122.416,0-222.008,99.593-222.008,222.008s99.591,222.008,222.008,222.008
	c4.476,0,8.915-0.149,13.326-0.411C153.093,470.68,60.647,373.94,60.647,256.001z"/>
<path style="fill:#FF9737;" d="M460.276,410.134c0.142-0.188,0.279-0.38,0.421-0.568c0.406-0.54,0.805-1.086,1.207-1.629
	c0.732-0.99,1.46-1.984,2.178-2.983c0.422-0.588,0.842-1.18,1.26-1.772c0.707-1.003,1.405-2.011,2.098-3.024
	c0.384-0.562,0.771-1.124,1.151-1.689c0.825-1.227,1.637-2.461,2.44-3.704c0.225-0.348,0.457-0.692,0.681-1.043
	c1.014-1.582,2.01-3.177,2.99-4.784c0.285-0.468,0.562-0.942,0.845-1.413c0.699-1.162,1.391-2.327,2.073-3.502
	c0.348-0.597,0.688-1.198,1.031-1.798c0.615-1.083,1.224-2.169,1.825-3.26c0.335-0.609,0.669-1.218,0.998-1.829
	c0.631-1.167,1.248-2.341,1.86-3.52c0.271-0.521,0.547-1.04,0.814-1.562c0.865-1.692,1.713-3.392,2.541-5.105
	c0.087-0.181,0.17-0.366,0.258-0.548c0.738-1.538,1.462-3.085,2.171-4.641c0.26-0.571,0.512-1.147,0.769-1.722
	c0.532-1.188,1.055-2.381,1.568-3.579c0.273-0.637,0.543-1.278,0.812-1.919c0.496-1.184,0.983-2.374,1.461-3.567
	c0.244-0.611,0.491-1.219,0.73-1.829c0.553-1.414,1.093-2.834,1.622-4.26c0.142-0.381,0.289-0.76,0.429-1.142
	c0.661-1.805,1.301-3.62,1.921-5.445c0.161-0.471,0.313-0.947,0.471-1.419c0.455-1.363,0.902-2.729,1.334-4.102
	c0.204-0.645,0.4-1.294,0.599-1.941c0.378-1.235,0.746-2.472,1.107-3.714c0.193-0.667,0.384-1.331,0.571-2
	c0.369-1.311,0.724-2.627,1.071-3.947c0.151-0.574,0.307-1.144,0.454-1.72c0.484-1.888,0.95-3.781,1.391-5.684
	c0.019-0.087,0.037-0.175,0.057-0.262c0.418-1.814,0.814-3.635,1.192-5.464c0.127-0.608,0.244-1.22,0.365-1.831
	c0.264-1.326,0.523-2.654,0.766-3.988c0.128-0.697,0.252-1.395,0.374-2.094c0.225-1.295,0.44-2.595,0.646-3.896
	c0.108-0.674,0.215-1.345,0.317-2.022c0.226-1.506,0.437-3.016,0.635-4.529c0.06-0.455,0.128-0.907,0.186-1.363
	c0.248-1.963,0.474-3.933,0.678-5.91c0.05-0.488,0.091-0.979,0.138-1.469c0.146-1.499,0.281-3.001,0.401-4.507
	c0.055-0.696,0.103-1.394,0.152-2.09c0.095-1.33,0.18-2.662,0.255-3.996c0.039-0.726,0.078-1.453,0.114-2.181
	c0.065-1.385,0.117-2.776,0.158-4.167c0.02-0.641,0.046-1.282,0.062-1.924c0.047-2.021,0.076-4.044,0.076-6.076
	C512.001,114.842,397.16,0,256.002,0S0.001,114.842,0.001,256.001c0,2.031,0.029,4.055,0.076,6.076
	c0.016,0.642,0.041,1.283,0.062,1.924c0.041,1.391,0.093,2.782,0.158,4.167c0.035,0.728,0.074,1.455,0.114,2.181
	c0.074,1.334,0.16,2.667,0.255,3.996c0.049,0.697,0.097,1.395,0.152,2.09c0.12,1.507,0.257,3.009,0.401,4.507
	c0.047,0.49,0.087,0.98,0.138,1.469c0.204,1.977,0.43,3.947,0.678,5.91c0.058,0.455,0.125,0.907,0.186,1.363
	c0.199,1.514,0.409,3.024,0.635,4.529c0.102,0.677,0.211,1.348,0.317,2.022c0.207,1.302,0.421,2.601,0.646,3.896
	c0.122,0.699,0.246,1.397,0.374,2.094c0.243,1.333,0.501,2.662,0.766,3.988c0.121,0.611,0.239,1.222,0.365,1.831
	c0.379,1.828,0.774,3.65,1.193,5.464c0.019,0.087,0.037,0.175,0.057,0.262c0.441,1.902,0.909,3.796,1.39,5.682
	c0.148,0.578,0.305,1.151,0.456,1.727c0.348,1.317,0.702,2.633,1.07,3.941c0.187,0.669,0.379,1.333,0.571,2
	c0.361,1.241,0.729,2.48,1.107,3.714c0.199,0.648,0.397,1.296,0.599,1.941c0.434,1.374,0.879,2.739,1.334,4.102
	c0.158,0.473,0.309,0.949,0.471,1.419c0.621,1.825,1.26,3.64,1.921,5.445c0.14,0.382,0.287,0.761,0.429,1.142
	c0.53,1.425,1.069,2.847,1.622,4.26c0.24,0.611,0.487,1.219,0.73,1.829c0.478,1.192,0.963,2.383,1.461,3.567
	c0.268,0.641,0.539,1.282,0.812,1.919c0.513,1.199,1.037,2.392,1.568,3.579c0.257,0.575,0.507,1.151,0.769,1.722
	c0.709,1.556,1.432,3.103,2.171,4.641c0.087,0.181,0.17,0.366,0.259,0.548c0.827,1.712,1.676,3.414,2.54,5.105
	c0.267,0.523,0.542,1.042,0.814,1.562c0.612,1.179,1.23,2.353,1.86,3.52c0.329,0.612,0.663,1.22,0.998,1.829
	c0.6,1.091,1.21,2.177,1.825,3.26c0.343,0.6,0.682,1.201,1.031,1.798c0.68,1.175,1.373,2.34,2.073,3.502
	c0.282,0.471,0.56,0.944,0.845,1.413c0.98,1.605,1.975,3.198,2.989,4.781c0.225,0.353,0.459,0.702,0.689,1.054
	c0.801,1.238,1.611,2.47,2.433,3.694c0.38,0.566,0.767,1.127,1.151,1.689c0.693,1.013,1.391,2.022,2.098,3.024
	c0.418,0.593,0.838,1.184,1.26,1.772c0.719,1,1.446,1.993,2.178,2.983c0.401,0.543,0.801,1.089,1.207,1.629
	c0.142,0.188,0.279,0.38,0.421,0.568l0.159,0.189c5.526,7.291,11.434,14.277,17.694,20.931l0.171,0.205
	c0.159,0.167,0.323,0.331,0.481,0.497c0.82,0.864,1.652,1.716,2.484,2.569c0.627,0.644,1.249,1.293,1.884,1.93
	c0.855,0.86,1.723,1.705,2.59,2.551c0.63,0.615,1.252,1.235,1.889,1.844c0.898,0.859,1.809,1.703,2.72,2.549
	c0.621,0.578,1.236,1.162,1.863,1.734c0.967,0.883,1.949,1.748,2.931,2.615c0.585,0.518,1.161,1.043,1.75,1.554
	c1.105,0.959,2.226,1.899,3.347,2.84c0.481,0.403,0.953,0.817,1.436,1.216c1.538,1.272,3.093,2.525,4.662,3.761
	c0.074,0.059,0.149,0.121,0.223,0.18c1.655,1.301,3.324,2.581,5.011,3.841c0.412,0.308,0.833,0.606,1.249,0.913
	c1.269,0.937,2.541,1.872,3.828,2.786c0.606,0.43,1.223,0.846,1.833,1.273c1.109,0.773,2.217,1.548,3.337,2.304
	c0.693,0.467,1.398,0.92,2.096,1.38c1.052,0.693,2.101,1.391,3.163,2.07c0.748,0.478,1.507,0.941,2.26,1.412
	c1.027,0.642,2.052,1.286,3.09,1.913c0.785,0.475,1.578,0.935,2.369,1.403c1.019,0.602,2.037,1.207,3.065,1.795
	c0.817,0.467,1.64,0.92,2.461,1.377c1.015,0.567,2.031,1.134,3.055,1.687c0.842,0.454,1.692,0.896,2.54,1.341
	c1.018,0.535,2.036,1.07,3.063,1.592c0.862,0.438,1.73,0.864,2.597,1.292c1.026,0.506,2.052,1.013,3.086,1.506
	c0.879,0.42,1.763,0.829,2.648,1.24c1.034,0.479,2.069,0.956,3.11,1.421c0.897,0.4,1.797,0.792,2.7,1.183
	c1.043,0.452,2.087,0.901,3.138,1.338c0.911,0.381,1.825,0.753,2.741,1.124c1.052,0.425,2.107,0.845,3.167,1.257
	c0.924,0.359,1.852,0.711,2.782,1.059c1.064,0.4,2.131,0.792,3.202,1.177c0.937,0.337,1.875,0.668,2.818,0.994
	c1.074,0.373,2.153,0.737,3.235,1.097c0.949,0.314,1.898,0.624,2.851,0.928c1.087,0.346,2.176,0.682,3.268,1.013
	c0.96,0.292,1.921,0.58,2.884,0.86c1.098,0.319,2.2,0.628,3.304,0.932c0.967,0.267,1.937,0.534,2.909,0.79
	c1.111,0.292,2.228,0.574,3.344,0.851c0.976,0.242,1.949,0.485,2.928,0.716c1.127,0.267,2.26,0.519,3.39,0.771
	c0.98,0.216,1.958,0.436,2.943,0.641c1.142,0.24,2.288,0.463,3.434,0.687c0.985,0.192,1.967,0.387,2.955,0.567
	c1.162,0.213,2.329,0.407,3.496,0.604c0.981,0.165,1.961,0.336,2.946,0.491c1.183,0.184,2.372,0.351,3.56,0.519
	c0.979,0.139,1.956,0.285,2.94,0.412c1.211,0.158,2.429,0.295,3.645,0.435c0.966,0.112,1.93,0.232,2.899,0.333
	c1.256,0.13,2.518,0.238,3.781,0.351c0.938,0.083,1.873,0.177,2.814,0.251c1.329,0.104,2.665,0.18,3.998,0.263
	c0.881,0.055,1.758,0.122,2.642,0.168c1.486,0.076,2.98,0.125,4.473,0.177c0.738,0.025,1.472,0.066,2.213,0.084
	c2.236,0.058,4.478,0.089,6.728,0.089c2.251,0,4.492-0.03,6.728-0.089c0.739-0.019,1.473-0.059,2.213-0.084
	c1.493-0.052,2.988-0.101,4.473-0.177c0.884-0.046,1.761-0.114,2.642-0.168c1.333-0.083,2.671-0.16,3.998-0.263
	c0.941-0.073,1.876-0.167,2.814-0.251c1.263-0.113,2.525-0.22,3.781-0.351c0.969-0.101,1.934-0.221,2.899-0.333
	c1.217-0.14,2.434-0.277,3.645-0.435c0.984-0.128,1.961-0.273,2.94-0.412c1.188-0.168,2.377-0.335,3.56-0.519
	c0.986-0.155,1.965-0.325,2.946-0.491c1.167-0.197,2.335-0.392,3.496-0.604c0.988-0.18,1.971-0.375,2.955-0.567
	c1.146-0.224,2.293-0.447,3.434-0.687c0.985-0.206,1.963-0.425,2.943-0.641c1.132-0.252,2.264-0.503,3.39-0.771
	c0.979-0.231,1.953-0.474,2.928-0.716c1.116-0.278,2.233-0.559,3.344-0.851c0.972-0.257,1.941-0.523,2.909-0.79
	c1.103-0.305,2.206-0.613,3.304-0.932c0.962-0.28,1.924-0.568,2.884-0.86c1.092-0.331,2.181-0.668,3.268-1.013
	c0.953-0.305,1.902-0.614,2.851-0.928c1.082-0.358,2.161-0.724,3.235-1.097c0.942-0.326,1.881-0.656,2.818-0.994
	c1.071-0.385,2.138-0.777,3.202-1.177c0.93-0.347,1.857-0.7,2.782-1.059c1.06-0.412,2.115-0.832,3.167-1.257
	c0.916-0.371,1.832-0.743,2.741-1.124c1.051-0.438,2.095-0.886,3.138-1.338c0.903-0.391,1.803-0.782,2.7-1.183
	c1.042-0.466,2.077-0.942,3.11-1.421c0.885-0.41,1.769-0.82,2.648-1.24c1.034-0.492,2.06-0.999,3.086-1.506
	c0.867-0.429,1.736-0.855,2.597-1.292c1.027-0.522,2.045-1.056,3.063-1.592c0.848-0.445,1.697-0.887,2.54-1.341
	c1.024-0.553,2.039-1.12,3.055-1.687c0.821-0.457,1.646-0.911,2.461-1.377c1.028-0.587,2.046-1.192,3.065-1.795
	c0.791-0.467,1.584-0.928,2.369-1.403c1.037-0.627,2.062-1.272,3.09-1.913c0.753-0.471,1.511-0.933,2.26-1.412
	c1.062-0.678,2.111-1.377,3.163-2.07c0.698-0.46,1.403-0.913,2.096-1.38c1.12-0.756,2.227-1.531,3.337-2.304
	c0.609-0.427,1.227-0.842,1.833-1.273c1.287-0.914,2.559-1.85,3.828-2.786c0.416-0.306,0.837-0.604,1.249-0.913
	c1.687-1.26,3.356-2.541,5.011-3.841c0.074-0.059,0.149-0.121,0.223-0.18c1.568-1.237,3.123-2.49,4.662-3.761
	c0.484-0.399,0.957-0.812,1.436-1.216c1.121-0.941,2.243-1.881,3.347-2.84c0.588-0.511,1.165-1.036,1.75-1.554
	c0.981-0.867,1.964-1.732,2.931-2.615c0.628-0.572,1.242-1.156,1.863-1.734c0.911-0.847,1.822-1.691,2.72-2.549
	c0.635-0.609,1.259-1.23,1.888-1.844c0.866-0.847,1.735-1.692,2.59-2.551c0.634-0.636,1.257-1.285,1.884-1.93
	c0.831-0.853,1.663-1.705,2.484-2.569c0.158-0.167,0.322-0.331,0.481-0.497l0.171-0.205c6.26-6.653,12.167-13.641,17.694-20.931
	L460.276,410.134z M42.956,256.001c0-117.473,95.572-213.045,213.045-213.045s213.045,95.572,213.045,213.045
	s-95.572,213.045-213.045,213.045C138.527,469.046,42.956,373.474,42.956,256.001z"/>
<g style="opacity:0.1;">
	<path style="fill:#231F20;" d="M260.512,511.65c-0.884-0.046-1.761-0.114-2.642-0.168c-1.333-0.083-2.671-0.16-3.998-0.263
		c-0.941-0.073-1.876-0.167-2.814-0.251c-1.263-0.113-2.525-0.22-3.781-0.351c-0.969-0.101-1.934-0.221-2.899-0.333
		c-1.217-0.14-2.434-0.277-3.645-0.435c-0.984-0.128-1.961-0.273-2.94-0.412c-1.188-0.168-2.377-0.335-3.56-0.519
		c-0.986-0.155-1.965-0.325-2.946-0.491c-1.167-0.197-2.335-0.392-3.496-0.604c-0.988-0.18-1.971-0.375-2.955-0.567
		c-1.146-0.224-2.293-0.447-3.434-0.687c-0.985-0.206-1.963-0.425-2.943-0.641c-1.131-0.252-2.264-0.503-3.39-0.771
		c-0.979-0.231-1.953-0.474-2.928-0.716c-1.116-0.278-2.233-0.559-3.344-0.851c-0.972-0.257-1.941-0.523-2.909-0.79
		c-1.103-0.305-2.206-0.613-3.304-0.932c-0.962-0.28-1.924-0.568-2.884-0.86c-1.092-0.331-2.181-0.668-3.268-1.013
		c-0.953-0.305-1.902-0.614-2.851-0.928c-1.082-0.358-2.161-0.724-3.235-1.097c-0.942-0.326-1.881-0.656-2.818-0.994
		c-1.071-0.385-2.138-0.777-3.202-1.177c-0.93-0.347-1.857-0.7-2.782-1.059c-1.06-0.412-2.115-0.832-3.167-1.257
		c-0.916-0.371-1.832-0.743-2.741-1.124c-1.051-0.438-2.095-0.886-3.138-1.338c-0.903-0.391-1.803-0.782-2.7-1.183
		c-1.042-0.466-2.077-0.942-3.11-1.421c-0.885-0.41-1.769-0.82-2.648-1.24c-1.034-0.492-2.06-0.999-3.086-1.506
		c-0.867-0.429-1.736-0.855-2.597-1.292c-1.027-0.522-2.045-1.056-3.063-1.592c-0.848-0.445-1.697-0.887-2.54-1.341
		c-1.024-0.553-2.039-1.12-3.055-1.687c-0.821-0.457-1.646-0.911-2.461-1.377c-1.028-0.587-2.046-1.192-3.065-1.795
		c-0.791-0.467-1.584-0.928-2.369-1.403c-1.037-0.627-2.062-1.272-3.09-1.913c-0.753-0.471-1.511-0.933-2.26-1.412
		c-1.062-0.678-2.111-1.377-3.163-2.07c-0.698-0.46-1.403-0.913-2.096-1.38c-1.12-0.756-2.227-1.531-3.337-2.304
		c-0.609-0.427-1.227-0.842-1.833-1.273c-1.287-0.914-2.559-1.85-3.828-2.786c-0.416-0.306-0.837-0.604-1.249-0.913
		c-1.687-1.26-3.356-2.541-5.011-3.841c-0.074-0.059-0.149-0.121-0.223-0.18c-1.568-1.237-3.123-2.49-4.662-3.761
		c-0.484-0.399-0.956-0.812-1.436-1.216c-1.121-0.941-2.243-1.881-3.347-2.84c-0.588-0.511-1.165-1.036-1.75-1.554
		c-0.981-0.867-1.964-1.732-2.931-2.615c-0.628-0.572-1.242-1.156-1.863-1.734c-0.911-0.847-1.822-1.691-2.72-2.549
		c-0.635-0.609-1.259-1.23-1.889-1.844c-0.866-0.847-1.735-1.692-2.59-2.551c-0.634-0.636-1.257-1.285-1.884-1.93
		c-0.831-0.853-1.663-1.705-2.484-2.569c-0.158-0.167-0.322-0.331-0.481-0.497l-0.171-0.205
		c-6.26-6.653-12.167-13.641-17.694-20.931l-0.159-0.189c-0.142-0.188-0.279-0.38-0.421-0.568c-0.406-0.54-0.805-1.086-1.207-1.629
		c-0.732-0.99-1.46-1.984-2.178-2.983c-0.422-0.588-0.842-1.18-1.26-1.772c-0.707-1.003-1.405-2.011-2.098-3.024
		c-0.384-0.562-0.771-1.124-1.151-1.689c-0.822-1.223-1.632-2.456-2.433-3.694c-0.23-0.352-0.464-0.701-0.689-1.054
		c-1.014-1.582-2.009-3.176-2.989-4.781c-0.285-0.468-0.562-0.942-0.845-1.413c-0.699-1.162-1.391-2.327-2.073-3.502
		c-0.348-0.597-0.688-1.198-1.031-1.798c-0.615-1.083-1.224-2.169-1.825-3.26c-0.335-0.609-0.669-1.218-0.998-1.829
		c-0.631-1.167-1.248-2.341-1.86-3.52c-0.271-0.521-0.547-1.04-0.814-1.562c-0.864-1.692-1.713-3.392-2.541-5.105
		c-0.087-0.181-0.17-0.366-0.258-0.548c-0.738-1.538-1.462-3.085-2.171-4.641c-0.26-0.571-0.512-1.147-0.769-1.722
		c-0.532-1.188-1.055-2.381-1.568-3.579c-0.273-0.637-0.543-1.278-0.812-1.919c-0.496-1.184-0.982-2.374-1.461-3.567
		c-0.244-0.611-0.491-1.219-0.73-1.829c-0.553-1.414-1.093-2.834-1.622-4.26c-0.142-0.381-0.289-0.76-0.429-1.142
		c-0.661-1.805-1.301-3.62-1.921-5.445c-0.161-0.471-0.313-0.947-0.471-1.419c-0.455-1.363-0.902-2.729-1.334-4.102
		c-0.204-0.645-0.401-1.294-0.599-1.941c-0.378-1.235-0.746-2.472-1.107-3.714c-0.193-0.667-0.384-1.331-0.571-2
		c-0.367-1.309-0.723-2.624-1.07-3.941c-0.151-0.577-0.308-1.149-0.456-1.727c-0.483-1.888-0.95-3.78-1.39-5.682
		c-0.019-0.087-0.037-0.175-0.057-0.262c-0.418-1.814-0.814-3.635-1.193-5.464c-0.127-0.608-0.244-1.22-0.365-1.831
		c-0.264-1.326-0.523-2.654-0.766-3.988c-0.128-0.697-0.252-1.395-0.374-2.094c-0.225-1.295-0.44-2.595-0.646-3.896
		c-0.108-0.674-0.215-1.345-0.317-2.022c-0.226-1.506-0.437-3.016-0.635-4.529c-0.06-0.455-0.128-0.907-0.186-1.363
		c-0.248-1.963-0.474-3.933-0.677-5.91c-0.05-0.488-0.091-0.979-0.138-1.469c-0.146-1.499-0.281-3.001-0.401-4.507
		c-0.055-0.696-0.103-1.394-0.152-2.09c-0.095-1.33-0.18-2.662-0.255-3.996c-0.039-0.726-0.078-1.453-0.114-2.181
		c-0.065-1.385-0.117-2.776-0.158-4.167c-0.02-0.641-0.046-1.282-0.062-1.924c-0.047-2.021-0.076-4.044-0.076-6.076
		c0-138.155,110.015-251.082,247.038-255.824C261.987,0.071,259.003,0,256.002,0C114.843,0,0.001,114.842,0.001,256.001
		c0,2.031,0.029,4.055,0.076,6.076c0.016,0.642,0.041,1.283,0.062,1.924c0.041,1.391,0.093,2.782,0.158,4.167
		c0.035,0.728,0.074,1.455,0.114,2.181c0.074,1.334,0.16,2.667,0.255,3.996c0.049,0.697,0.097,1.395,0.152,2.09
		c0.12,1.507,0.257,3.009,0.401,4.507c0.047,0.49,0.087,0.98,0.138,1.469c0.204,1.977,0.43,3.947,0.678,5.91
		c0.058,0.455,0.125,0.907,0.186,1.363c0.199,1.514,0.409,3.024,0.635,4.529c0.102,0.677,0.211,1.348,0.317,2.022
		c0.207,1.302,0.421,2.601,0.646,3.896c0.122,0.699,0.246,1.397,0.374,2.094c0.243,1.333,0.501,2.662,0.766,3.988
		c0.121,0.611,0.239,1.222,0.365,1.831c0.379,1.828,0.774,3.65,1.193,5.464c0.019,0.087,0.037,0.175,0.057,0.262
		c0.441,1.902,0.909,3.796,1.39,5.682c0.148,0.578,0.305,1.151,0.456,1.727c0.348,1.317,0.702,2.633,1.07,3.941
		c0.187,0.669,0.379,1.333,0.571,2c0.361,1.241,0.729,2.48,1.107,3.714c0.199,0.648,0.397,1.296,0.599,1.941
		c0.434,1.374,0.879,2.739,1.334,4.102c0.158,0.473,0.309,0.949,0.471,1.419c0.621,1.825,1.26,3.64,1.921,5.445
		c0.14,0.382,0.287,0.761,0.429,1.142c0.53,1.425,1.069,2.847,1.622,4.26c0.24,0.611,0.487,1.219,0.73,1.829
		c0.478,1.192,0.963,2.383,1.461,3.567c0.268,0.641,0.539,1.282,0.812,1.919c0.513,1.199,1.037,2.392,1.568,3.579
		c0.257,0.575,0.507,1.151,0.769,1.722c0.709,1.556,1.432,3.103,2.171,4.641c0.087,0.181,0.17,0.366,0.259,0.548
		c0.827,1.712,1.676,3.414,2.54,5.105c0.267,0.523,0.542,1.042,0.814,1.562c0.612,1.179,1.23,2.353,1.86,3.52
		c0.329,0.612,0.663,1.22,0.998,1.829c0.6,1.091,1.21,2.177,1.825,3.26c0.343,0.6,0.682,1.201,1.031,1.798
		c0.68,1.175,1.373,2.34,2.073,3.502c0.282,0.471,0.56,0.944,0.845,1.413c0.98,1.605,1.975,3.198,2.989,4.781
		c0.225,0.353,0.459,0.702,0.689,1.054c0.801,1.238,1.611,2.47,2.433,3.694c0.38,0.566,0.767,1.127,1.151,1.689
		c0.693,1.013,1.391,2.022,2.098,3.024c0.418,0.593,0.838,1.184,1.26,1.772c0.719,1,1.446,1.993,2.178,2.983
		c0.401,0.543,0.801,1.089,1.207,1.629c0.142,0.188,0.279,0.38,0.421,0.568l0.159,0.189c5.526,7.291,11.434,14.277,17.694,20.931
		l0.171,0.205c0.159,0.167,0.323,0.331,0.481,0.497c0.82,0.864,1.652,1.716,2.484,2.569c0.627,0.644,1.249,1.293,1.884,1.93
		c0.855,0.86,1.723,1.705,2.59,2.551c0.63,0.615,1.252,1.235,1.889,1.844c0.898,0.859,1.809,1.703,2.72,2.549
		c0.621,0.578,1.236,1.162,1.863,1.734c0.967,0.883,1.949,1.748,2.931,2.615c0.585,0.518,1.161,1.043,1.75,1.554
		c1.105,0.959,2.226,1.899,3.347,2.84c0.481,0.403,0.953,0.817,1.436,1.216c1.538,1.272,3.093,2.525,4.662,3.761
		c0.074,0.059,0.149,0.121,0.223,0.18c1.655,1.301,3.324,2.581,5.011,3.841c0.412,0.308,0.833,0.606,1.249,0.913
		c1.269,0.937,2.541,1.872,3.828,2.786c0.606,0.43,1.223,0.846,1.833,1.273c1.109,0.773,2.217,1.548,3.337,2.304
		c0.693,0.467,1.398,0.92,2.096,1.38c1.052,0.693,2.101,1.391,3.163,2.07c0.748,0.478,1.507,0.941,2.26,1.412
		c1.027,0.642,2.052,1.286,3.09,1.913c0.785,0.475,1.578,0.935,2.369,1.403c1.019,0.602,2.037,1.207,3.065,1.795
		c0.817,0.467,1.64,0.92,2.461,1.377c1.015,0.567,2.031,1.134,3.055,1.687c0.842,0.454,1.692,0.896,2.54,1.341
		c1.018,0.535,2.036,1.07,3.063,1.592c0.862,0.438,1.73,0.864,2.597,1.292c1.026,0.506,2.052,1.013,3.086,1.506
		c0.879,0.42,1.763,0.829,2.648,1.24c1.034,0.479,2.069,0.956,3.11,1.421c0.897,0.4,1.797,0.792,2.7,1.183
		c1.043,0.452,2.087,0.901,3.138,1.338c0.911,0.381,1.825,0.753,2.741,1.124c1.052,0.425,2.107,0.845,3.167,1.257
		c0.924,0.359,1.852,0.711,2.782,1.059c1.064,0.4,2.131,0.792,3.202,1.177c0.937,0.337,1.875,0.668,2.818,0.994
		c1.074,0.373,2.153,0.737,3.235,1.097c0.949,0.314,1.898,0.624,2.851,0.928c1.087,0.346,2.176,0.682,3.268,1.013
		c0.96,0.292,1.921,0.58,2.884,0.86c1.098,0.319,2.2,0.628,3.304,0.932c0.967,0.267,1.937,0.534,2.909,0.79
		c1.111,0.292,2.228,0.574,3.344,0.851c0.976,0.242,1.949,0.485,2.928,0.716c1.127,0.267,2.26,0.519,3.39,0.771
		c0.98,0.216,1.958,0.436,2.943,0.641c1.142,0.24,2.288,0.463,3.434,0.687c0.985,0.192,1.967,0.387,2.955,0.567
		c1.162,0.213,2.329,0.407,3.496,0.604c0.981,0.165,1.961,0.336,2.946,0.491c1.183,0.184,2.372,0.351,3.56,0.519
		c0.979,0.139,1.956,0.285,2.94,0.412c1.211,0.158,2.429,0.295,3.645,0.435c0.966,0.112,1.93,0.232,2.899,0.333
		c1.256,0.13,2.518,0.238,3.781,0.351c0.938,0.083,1.873,0.177,2.814,0.251c1.329,0.104,2.665,0.18,3.998,0.263
		c0.881,0.055,1.758,0.122,2.642,0.168c1.486,0.076,2.98,0.125,4.473,0.177c0.738,0.025,1.472,0.066,2.213,0.084
		c2.236,0.058,4.478,0.089,6.728,0.089c2.251,0,4.492-0.03,6.728-0.089c0.739-0.019,1.473-0.059,2.213-0.084
		c0.008,0,0.015,0,0.022-0.001C263.477,511.775,261.991,511.727,260.512,511.65z"/>
</g>
<g>
	<path style="fill:#578CAD;" d="M419.792,119.918c-4.891-5.878-10.096-11.484-15.582-16.804H107.793
		c-5.486,5.32-10.691,10.926-15.582,16.804H419.792z"/>
	<path style="fill:#578CAD;" d="M257.389,247.598H43.137c-0.109,2.788-0.18,5.587-0.18,8.402c0,2.815,0.072,5.614,0.18,8.402
		h214.252c4.64,0,8.402-3.761,8.402-8.402C265.791,251.359,262.029,247.598,257.389,247.598z"/>
	<path style="fill:#578CAD;" d="M316.19,264.403H287.91c-4.64,0-8.402-3.761-8.402-8.402c0-4.641,3.762-8.402,8.402-8.402h28.281
		c4.64,0,8.402,3.761,8.402,8.402C324.593,260.641,320.831,264.403,316.19,264.403z"/>
	<path style="fill:#578CAD;" d="M338.812,256.001c0,4.641,3.761,8.402,8.402,8.402h121.652c0.109-2.788,0.18-5.587,0.18-8.402
		c0-2.815-0.072-5.614-0.18-8.402H347.215C342.573,247.598,338.812,251.359,338.812,256.001z"/>
	<path style="fill:#578CAD;" d="M92.211,392.082c4.891,5.878,10.096,11.484,15.582,16.804H404.21
		c5.486-5.32,10.691-10.926,15.582-16.804H92.211z"/>
	<path style="fill:#578CAD;" d="M178.654,175.13H58.915c-2.261,5.492-4.306,11.094-6.11,16.804h125.849
		c4.64,0,8.402-3.761,8.402-8.402C187.056,178.892,183.293,175.13,178.654,175.13z"/>
	<path style="fill:#578CAD;" d="M459.345,319.612H329.421c-4.641,0-8.402,3.761-8.402,8.402s3.761,8.402,8.402,8.402h123.854
		C455.521,330.923,457.556,325.322,459.345,319.612z"/>
</g>
<g>
</g>
<g>
</g>
<g>
</g>
<g>
</g>
<g>
</g>
<g>
</g>
<g>
</g>
<g>
</g>
<g>
</g>
<g>
</g>
<g>
</g>
<g>
</g>
<g>
</g>
<g>
</g>
<g>
</g>
</svg>
