<?xml version="1.0" encoding="iso-8859-1"?>
<!-- Generator: Adobe Illustrator 19.0.0, SVG Export Plug-In . SVG Version: 6.00 Build 0)  -->
<svg version="1.1" id="Layer_1" xmlns="http://www.w3.org/2000/svg" xmlns:xlink="http://www.w3.org/1999/xlink" x="0px" y="0px"
	 viewBox="0 0 512 512" style="enable-background:new 0 0 512 512;" xml:space="preserve">
<g>
	<path style="fill:#CAE9F7;" d="M503.916,264.084h-165.83c-4.465,0-8.084-3.618-8.084-8.084s3.62-8.084,8.084-8.084h165.83
		c4.465,0,8.084,3.618,8.084,8.084S508.38,264.084,503.916,264.084z"/>
	<path style="fill:#CAE9F7;" d="M173.914,264.084H8.084C3.62,264.084,0,260.466,0,256s3.62-8.084,8.084-8.084h165.83
		c4.465,0,8.084,3.618,8.084,8.084S178.378,264.084,173.914,264.084z"/>
	<path style="fill:#CAE9F7;" d="M256,512c-4.465,0-8.084-3.618-8.084-8.084v-26.947c0-4.465,3.62-8.084,8.084-8.084
		c4.465,0,8.084,3.62,8.084,8.084v26.947C264.084,508.382,260.465,512,256,512z M256,458.105c-4.465,0-8.084-3.618-8.084-8.084
		v-26.947c0-4.465,3.62-8.084,8.084-8.084c4.465,0,8.084,3.62,8.084,8.084v26.947C264.084,454.487,260.465,458.105,256,458.105z
		 M256,404.211c-4.465,0-8.084-3.618-8.084-8.084v-16.582c0-4.466,3.62-8.084,8.084-8.084c4.465,0,8.084,3.618,8.084,8.084v16.582
		C264.084,400.592,260.465,404.211,256,404.211z"/>
	<path style="fill:#CAE9F7;" d="M256,140.542c-4.465,0-8.084-3.618-8.084-8.084v-26.947c0-4.466,3.62-8.084,8.084-8.084
		c4.465,0,8.084,3.618,8.084,8.084v26.947C264.084,136.923,260.465,140.542,256,140.542z M256,86.648
		c-4.465,0-8.084-3.618-8.084-8.084V51.616c0-4.466,3.62-8.084,8.084-8.084c4.465,0,8.084,3.618,8.084,8.084v26.947
		C264.084,83.028,260.465,86.648,256,86.648z M256,32.753c-4.465,0-8.084-3.618-8.084-8.084V8.084C247.916,3.62,251.535,0,256,0
		c4.465,0,8.084,3.62,8.084,8.084v16.584C264.084,29.133,260.465,32.753,256,32.753z"/>
</g>
<path style="fill:#FF4D30;" d="M256,165.291c-50.018,0-90.709,40.692-90.709,90.709c0,50.016,40.692,90.708,90.709,90.708
	s90.709-40.692,90.709-90.708C346.709,205.982,306.018,165.291,256,165.291z"/>
<path style="opacity:0.1;fill:#231F20;enable-background:new    ;" d="M190.621,256c0-45.718,34.003-83.624,78.044-89.806
	c-4.142-0.581-8.366-0.903-12.665-0.903c-50.018,0-90.709,40.692-90.709,90.709c0,50.016,40.692,90.708,90.709,90.708
	c4.3,0,8.523-0.321,12.665-0.903C224.625,339.623,190.621,301.718,190.621,256z"/>
<path style="fill:#90C8EC;" d="M351.254,334.588c-22.678,27.44-56.959,44.955-95.254,44.955
	c-68.121,0-123.543-55.421-123.543-123.543S187.879,132.457,256,132.457c68.122,0,123.543,55.421,123.543,123.543
	c0,20.303-4.924,39.48-13.639,56.398 M256,173.914c-45.262,0-82.086,36.824-82.086,82.086c0,45.263,36.824,82.085,82.086,82.085
	c45.263,0,82.086-36.822,82.086-82.085C338.086,210.738,301.263,173.914,256,173.914z"/>
<g style="opacity:0.1;">
	<path style="fill:#231F20;" d="M149.703,256c0-65.223,50.808-118.795,114.92-123.238c-2.85-0.197-5.725-0.305-8.623-0.305
		c-68.121,0-123.543,55.421-123.543,123.543S187.879,379.543,256,379.543c2.889,0,5.751-0.111,8.591-0.307
		C200.494,374.776,149.703,321.212,149.703,256z"/>
</g>
<g>
	<path style="fill:#D33F2F;" d="M335.678,236.287c-1.326-5.357-3.173-10.509-5.496-15.397h-67.151c-4.465,0-8.084,3.618-8.084,8.084
		s3.62,8.084,8.084,8.084h69.217C333.476,237.059,334.635,236.777,335.678,236.287z"/>
	<path style="fill:#D33F2F;" d="M337.113,268.634c-0.787-0.255-1.627-0.398-2.499-0.398H228.208c-4.466,0-8.084,3.618-8.084,8.084
		c0,4.466,3.618,8.084,8.084,8.084h104.807C334.881,279.36,336.267,274.085,337.113,268.634z"/>
</g>
<g>
</g>
<g>
</g>
<g>
</g>
<g>
</g>
<g>
</g>
<g>
</g>
<g>
</g>
<g>
</g>
<g>
</g>
<g>
</g>
<g>
</g>
<g>
</g>
<g>
</g>
<g>
</g>
<g>
</g>
</svg>
